<svg xmlns="http://www.w3.org/2000/svg" viewBox="0 0 120 32" fill="none">
  <rect width="32" height="32" rx="8" fill="url(#lg)"/>
  <path d="M16 8a8 8 0 100 16 8 8 0 000-16zm0 2a6 6 0 110 12 6 6 0 010-12zm0 2a4 4 0 100 8 4 4 0 000-8zm0 2a2 2 0 110 4 2 2 0 010-4z" fill="#fff" fill-opacity="0.9"/>
  <circle cx="16" cy="16" r="1.5" fill="#fff"/>
  <text x="40" y="22" font-family="Inter, sans-serif" font-size="18" font-weight="700" fill="currentColor">CBS</text>
  <defs>
    <linearGradient id="lg" x1="0" y1="0" x2="32" y2="32">
      <stop stop-color="#3b82f6"/>
      <stop offset="1" stop-color="#8b5cf6"/>
    </linearGradient>
  </defs>
</svg>
